name rise37.2698peak67.6939fall79.5734.mot
datacolumns 19
datarows 27
range 1.34666000000000 1.39000000000000
endheader
time	ground_force1_vx	ground_force1_vy	ground_force1_vz	ground_force1_px	ground_force1_py	ground_force1_pz	ground_force2_vx	ground_force2_vy	ground_force2_vz	ground_force2_px	ground_force2_py	ground_force2_pz	ground_torque1_x	ground_torque1_y	ground_torque1_z	ground_torque2_x	ground_torque2_y	ground_torque2_z	
1.34666000000000	57.41631800000000	744.85170200000005	51.33955300000000	0.34393100000000	0.00000000000000	0.10510600000000	0.00000000000000	0.00000000000000	0.00000000000000	0.00000000000000	0.00000000000000	0.00000000000000	0.00000000000000	23.02180500000000	0.00000000000000	0.00000000000000	0.00000000000000	0.00000000000000	
1.34833100000000	56.85346800000000	747.45643099999995	51.39920300000000	0.34271000000000	0.00000000000000	0.10506600000000	0.00000000000000	0.00000000000000	0.00000000000000	0.00000000000000	0.00000000000000	0.00000000000000	0.00000000000000	23.03112700000000	0.00000000000000	0.00000000000000	0.00000000000000	0.00000000000000	
1.34999500000000	56.30090200000000	749.98684800000001	51.45847000000000	0.34153400000000	0.00000000000000	0.10502500000000	0.00000000000000	0.00000000000000	0.00000000000000	0.00000000000000	0.00000000000000	0.00000000000000	0.00000000000000	23.04057100000000	0.00000000000000	0.00000000000000	0.00000000000000	0.00000000000000	
1.35166400000000	55.75876000000000	752.44030799999996	51.51726500000000	0.34040200000000	0.00000000000000	0.10498400000000	0.00000000000000	0.00000000000000	0.00000000000000	0.00000000000000	0.00000000000000	0.00000000000000	0.00000000000000	23.05014300000000	0.00000000000000	0.00000000000000	0.00000000000000	0.00000000000000	
1.35332600000000	55.22708500000000	754.81413199999997	51.57543200000000	0.33931600000000	0.00000000000000	0.10494100000000	0.00000000000000	0.00000000000000	0.00000000000000	0.00000000000000	0.00000000000000	0.00000000000000	0.00000000000000	23.05980900000000	0.00000000000000	0.00000000000000	0.00000000000000	0.00000000000000	
1.35499300000000	54.70583000000000	757.10562500000003	51.63276200000000	0.33827300000000	0.00000000000000	0.10489800000000	0.00000000000000	0.00000000000000	0.00000000000000	0.00000000000000	0.00000000000000	0.00000000000000	0.00000000000000	23.06950000000000	0.00000000000000	0.00000000000000	0.00000000000000	0.00000000000000	
1.35666400000000	54.19486100000000	759.31209699999999	51.68898600000000	0.33727400000000	0.00000000000000	0.10485400000000	0.00000000000000	0.00000000000000	0.00000000000000	0.00000000000000	0.00000000000000	0.00000000000000	0.00000000000000	23.07911000000000	0.00000000000000	0.00000000000000	0.00000000000000	0.00000000000000	
1.35833000000000	53.69396300000000	761.43087800000001	51.74379100000000	0.33631700000000	0.00000000000000	0.10480900000000	0.00000000000000	0.00000000000000	0.00000000000000	0.00000000000000	0.00000000000000	0.00000000000000	0.00000000000000	23.08850600000000	0.00000000000000	0.00000000000000	0.00000000000000	0.00000000000000	
1.35999700000000	53.20284300000000	763.45934000000000	51.79681600000000	0.33540200000000	0.00000000000000	0.10476400000000	0.00000000000000	0.00000000000000	0.00000000000000	0.00000000000000	0.00000000000000	0.00000000000000	0.00000000000000	23.09752400000000	0.00000000000000	0.00000000000000	0.00000000000000	0.00000000000000	
1.36166200000000	52.72113600000000	765.39491299999997	51.84766200000000	0.33452700000000	0.00000000000000	0.10471800000000	0.00000000000000	0.00000000000000	0.00000000000000	0.00000000000000	0.00000000000000	0.00000000000000	0.00000000000000	23.10597300000000	0.00000000000000	0.00000000000000	0.00000000000000	0.00000000000000	
1.36332500000000	52.24841400000000	767.23510299999998	51.89589500000000	0.33369100000000	0.00000000000000	0.10467100000000	0.00000000000000	0.00000000000000	0.00000000000000	0.00000000000000	0.00000000000000	0.00000000000000	0.00000000000000	23.11364200000000	0.00000000000000	0.00000000000000	0.00000000000000	0.00000000000000	
1.36499300000000	51.78418600000000	768.97750699999995	51.94105400000000	0.33289200000000	0.00000000000000	0.10462300000000	0.00000000000000	0.00000000000000	0.00000000000000	0.00000000000000	0.00000000000000	0.00000000000000	0.00000000000000	23.12029700000000	0.00000000000000	0.00000000000000	0.00000000000000	0.00000000000000	
1.36666100000000	51.32791000000000	770.61983299999997	51.98265500000000	0.33212900000000	0.00000000000000	0.10457500000000	0.00000000000000	0.00000000000000	0.00000000000000	0.00000000000000	0.00000000000000	0.00000000000000	0.00000000000000	23.12568900000000	0.00000000000000	0.00000000000000	0.00000000000000	0.00000000000000	
1.36833300000000	50.87899600000000	772.15991099999997	52.02019500000000	0.33140000000000	0.00000000000000	0.10452600000000	0.00000000000000	0.00000000000000	0.00000000000000	0.00000000000000	0.00000000000000	0.00000000000000	0.00000000000000	23.12955400000000	0.00000000000000	0.00000000000000	0.00000000000000	0.00000000000000	
1.36999300000000	50.43681200000000	773.59570900000006	52.05316100000000	0.33070200000000	0.00000000000000	0.10447700000000	0.00000000000000	0.00000000000000	0.00000000000000	0.00000000000000	0.00000000000000	0.00000000000000	0.00000000000000	23.13161600000000	0.00000000000000	0.00000000000000	0.00000000000000	0.00000000000000	
1.37166100000000	50.00069000000000	774.92534999999998	52.08103500000000	0.33003400000000	0.00000000000000	0.10442800000000	0.00000000000000	0.00000000000000	0.00000000000000	0.00000000000000	0.00000000000000	0.00000000000000	0.00000000000000	23.13159300000000	0.00000000000000	0.00000000000000	0.00000000000000	0.00000000000000	
1.37332800000000	49.56993700000000	776.14711899999998	52.10329700000000	0.32939400000000	0.00000000000000	0.10437800000000	0.00000000000000	0.00000000000000	0.00000000000000	0.00000000000000	0.00000000000000	0.00000000000000	0.00000000000000	23.12919600000000	0.00000000000000	0.00000000000000	0.00000000000000	0.00000000000000	
1.37499500000000	49.14383400000000	777.25947699999995	52.11943300000000	0.32877800000000	0.00000000000000	0.10432800000000	0.00000000000000	0.00000000000000	0.00000000000000	0.00000000000000	0.00000000000000	0.00000000000000	0.00000000000000	23.12413500000000	0.00000000000000	0.00000000000000	0.00000000000000	0.00000000000000	
1.37666300000000	48.72164700000000	778.26107400000001	52.12894000000000	0.32818500000000	0.00000000000000	0.10427700000000	0.00000000000000	0.00000000000000	0.00000000000000	0.00000000000000	0.00000000000000	0.00000000000000	0.00000000000000	23.11612100000000	0.00000000000000	0.00000000000000	0.00000000000000	0.00000000000000	
1.37832500000000	48.30263400000000	779.15075600000000	52.13132800000000	0.32761100000000	0.00000000000000	0.10422700000000	0.00000000000000	0.00000000000000	0.00000000000000	0.00000000000000	0.00000000000000	0.00000000000000	0.00000000000000	23.10486800000000	0.00000000000000	0.00000000000000	0.00000000000000	0.00000000000000	
1.38000000000000	47.88604500000000	779.92757300000005	52.12613100000000	0.32705500000000	0.00000000000000	0.10417600000000	0.00000000000000	0.00000000000000	0.00000000000000	0.00000000000000	0.00000000000000	0.00000000000000	0.00000000000000	23.09009700000000	0.00000000000000	0.00000000000000	0.00000000000000	0.00000000000000	
1.38166600000000	47.47113400000000	780.59078799999997	52.11290400000000	0.32651400000000	0.00000000000000	0.10412600000000	0.00000000000000	0.00000000000000	0.00000000000000	0.00000000000000	0.00000000000000	0.00000000000000	0.00000000000000	23.07153900000000	0.00000000000000	0.00000000000000	0.00000000000000	0.00000000000000	
1.38332600000000	47.05716300000000	781.13988199999994	52.09123400000000	0.32598500000000	0.00000000000000	0.10407600000000	0.00000000000000	0.00000000000000	0.00000000000000	0.00000000000000	0.00000000000000	0.00000000000000	0.00000000000000	23.04893600000000	0.00000000000000	0.00000000000000	0.00000000000000	0.00000000000000	
1.38499900000000	46.64340400000000	781.57456200000001	52.06074000000000	0.32546400000000	0.00000000000000	0.10402700000000	0.00000000000000	0.00000000000000	0.00000000000000	0.00000000000000	0.00000000000000	0.00000000000000	0.00000000000000	23.02204500000000	0.00000000000000	0.00000000000000	0.00000000000000	0.00000000000000	
1.38666200000000	46.22914900000000	781.89476000000002	52.02107800000000	0.32495000000000	0.00000000000000	0.10397700000000	0.00000000000000	0.00000000000000	0.00000000000000	0.00000000000000	0.00000000000000	0.00000000000000	0.00000000000000	22.99063900000000	0.00000000000000	0.00000000000000	0.00000000000000	0.00000000000000	
1.38832800000000	45.81371000000000	782.10064000000000	51.97194400000000	0.32444000000000	0.00000000000000	0.10392900000000	0.00000000000000	0.00000000000000	0.00000000000000	0.00000000000000	0.00000000000000	0.00000000000000	0.00000000000000	22.95451100000000	0.00000000000000	0.00000000000000	0.00000000000000	0.00000000000000	
1.39000000000000	45.39642700000000	782.19259899999997	51.91307800000000	0.32393000000000	0.00000000000000	0.10388100000000	0.00000000000000	0.00000000000000	0.00000000000000	0.00000000000000	0.00000000000000	0.00000000000000	0.00000000000000	22.91347500000000	0.00000000000000	0.00000000000000	0.00000000000000	0.00000000000000	
